<?xml version="1.0" encoding="utf-8"?>
<!-- Generator: Adobe Illustrator 19.2.1, SVG Export Plug-In . SVG Version: 6.00 Build 0)  -->
<svg version="1.1" id="Layer_1" xmlns="http://www.w3.org/2000/svg" xmlns:xlink="http://www.w3.org/1999/xlink" x="0px" y="0px"
	 viewBox="0 0 585 485" style="enable-background:new 0 0 585 485;" xml:space="preserve">
<style type="text/css">
	.st0{fill:#FFFFFF;}
</style>
<g>
	<g>
		<g>
			<path class="st0" d="M118.2,356.9l-9-35.2l-8.8,34.6c-1.3,5.2-3.7,8.2-10.6,8.2c-6.6-0.6-8.2-3.6-9.6-7.3l-19-70.7
				c-0.2-0.8-0.4-1.8-0.4-2.6c0-5.4,4.4-10.2,10.7-10.2c4.4,0,8.5,2.9,9.7,7.4l8.9,35.6l9-35.6c1.4-4.2,5.5-7.4,10-7.4s9,3,10.1,7.4
				l8.9,35.6l9-35.6c1.1-4.6,5.2-7.4,9.7-7.4c6,0,10.7,4.7,10.7,10.3c0,0.8-0.1,1.7-0.4,2.5l-18.8,69.8c-1.3,5-3.6,8.2-10.4,8.2
				C121.2,363.8,119.5,360.8,118.2,356.9z"/>
			<path class="st0" d="M183.4,273.5c5.9,0,10.4,4.4,10.4,10.2v70.6c0,5.8-4.6,10.2-10.4,10.2c-5.8,0-10.4-4.4-10.4-10.2v-70.6
				C173,277.9,177.7,273.5,183.4,273.5z"/>
			<path class="st0" d="M231.4,343.2h18.1c6.1,0,10.3,4.2,10.3,10.3c0,5.8-4.2,10.4-10.3,10.4h-27.8c-6.1,0-11-4.2-11-10.1v-70.2
				c0-6,4.3-10.2,10.4-10.2c5.8,0,10.3,4.2,10.3,10.2V343.2z"/>
			<path class="st0" d="M293.8,343.2h18.1c6.1,0,10.3,4.2,10.3,10.3c0,5.8-4.2,10.4-10.3,10.4h-27.8c-6.1,0-11-4.2-11-10.1v-70.2
				c0-6,4.3-10.2,10.4-10.2c5.8,0,10.3,4.2,10.3,10.2V343.2z"/>
			<path class="st0" d="M371.9,273c25.3,0,45.7,20.8,45.7,46.1c0,25.3-20.4,46.2-45.7,46.2s-45.7-20.9-45.7-46.2
				C326.2,293.7,346.6,273,371.9,273z M371.9,344.3c13.9,0,25-11.4,25-25.2s-11-25.3-25-25.3c-13.7,0-25,11.5-25,25.3
				S358.2,344.3,371.9,344.3z"/>
			<path class="st0" d="M482.3,356.9l-9-35.2l-8.8,34.6c-1.3,5.2-3.7,8.2-10.6,8.2c-6.6-0.6-8.2-3.6-9.6-7.3l-19-70.7
				c-0.2-0.8-0.4-1.8-0.4-2.6c0-5.4,4.4-10.2,10.7-10.2c4.4,0,8.5,2.9,9.7,7.4l8.9,35.6l9-35.6c1.4-4.2,5.5-7.4,10-7.4
				c4.4,0,9,3,10.1,7.4l8.9,35.6l9-35.6c1.1-4.6,5.2-7.4,9.7-7.4c6,0,10.7,4.7,10.7,10.3c0,0.8-0.1,1.7-0.4,2.5l-18.8,69.8
				c-1.3,5-3.6,8.2-10.4,8.2C485.3,363.8,483.6,360.8,482.3,356.9z"/>
		</g>
		<g>
			<path class="st0" d="M59,409.9c-14.3,0.7-25.1,11.3-25.1,25.1c0,13.4,12.6,24,25.1,25.2c5.4,0,11.4-2.4,15.5-5.5
				c2.2-1.9,4.4-2.9,7.4-2.9c5.8,0,10.4,4.4,10.4,10.3c0,4.7-3,7.4-4.8,9c-1.6,1.6-11.2,10-28.7,10c-25.3,0-45.7-20.8-45.7-46.1
				c0-25.3,20.4-45.8,45.7-45.8c17.5,0,27.1,8.4,28.6,9.8c1.9,1.7,4.9,4.3,4.9,9.1c0,5.8-4.7,10.3-10.4,10.3c-3,0-5.3-1-7.4-2.9
				C70.3,412.3,64.5,410.1,59,409.9z"/>
			<path class="st0" d="M132.8,446.2c-0.2-0.5-0.5-0.7-1.1-0.7h-2c-0.5,0-0.6,0.2-0.6,0.7v23.8c0,5.9-4.8,10.7-10.7,10.7
				c-5.9,0-10.1-5.3-10.1-10.8v-69.1c0-6,4.2-10.6,10.1-10.6h22c15.8,0,27.1,12.1,27.1,27.7c0,11.8-5.6,20.5-13.1,25.8l13,22.2
				c0.8,1.4,1.1,3,1.1,4.6c0,5.2-4.6,10.2-10.7,10.2c-3.7,0-7.3-2.2-9.2-5.8L132.8,446.2z M129,410.9v14.8h10.8
				c5.4,0,6.7-4.9,6.7-7.7c0-2.5-1.3-7.1-6.8-7.1H129z"/>
			<path class="st0" d="M205.3,445.2v14.2h20.4c5.9,0,10.3,4.7,10.3,10.4c0,5.8-4.4,10.3-10.3,10.3h-30.8c-5.8,0-10.3-4.7-10.3-10.4
				v-69.1c0-5.9,4.6-10.4,10.3-10.4h30.8c5.9,0,10.3,4.6,10.3,10.3c0,5.8-4.4,10.4-10.3,10.4h-20.4v13.6h20.4
				c5.9,0,10.3,4.6,10.3,10.3c0,5.9-4.4,10.4-10.3,10.4H205.3z"/>
			<path class="st0" d="M317.4,480.6c-4.9,0-8-3.5-10-7.9l-3.7-8.4h-29l-0.1,0.2l-3.5,8c-2,4.8-5,8-10.2,8
				c-5.9,0-10.6-4.2-10.6-10.2c0-1.7,0.4-3,0.8-4.1l28-69.8c1.8-4.7,5.3-6.8,10.1-6.8c4.7,0,8.2,2.2,10.1,6.8l28,69.8
				c0.4,1.1,0.7,2.4,0.7,4.1C327.9,476.4,323.4,480.6,317.4,480.6z M282.3,444.6h13.6v-0.1l-6.7-16.8l-0.1,0.2L282.3,444.6z"/>
			<path class="st0" d="M342.9,410.9h-8.8c-5,0-10.1-5.2-10.1-10.1c0-5.9,5-10.7,10.1-10.7h38.4c5.2,0,10.2,4.8,10.2,10.7
				c0,4.9-5,10.1-10.2,10.1h-8.9v59.9c0,6.1-4.6,9.8-10.3,9.8c-5.8,0-10.4-3.7-10.4-9.8V410.9z"/>
			<path class="st0" d="M407.6,389.7c5.9,0,10.4,4.4,10.4,10.2v70.6c0,5.8-4.6,10.2-10.4,10.2c-5.8,0-10.4-4.4-10.4-10.2v-70.6
				C397.1,394.1,401.8,389.7,407.6,389.7z"/>
			<path class="st0" d="M502.2,403.9l-24.5,69.8c-1.6,4.3-5.8,6.8-10.1,6.8c-4.7,0-8.6-2.4-10.2-6.8L433,403.9
				c-0.5-1-0.7-2.5-0.7-4.1c0-6,4.6-10.2,10.6-10.2c5,0,8.5,3.5,10.1,8.2l14.8,45l14.8-44.9c1.2-4.9,4.9-8.3,10.1-8.3
				c5.9,0,10.6,4.2,10.6,10.2C503.1,401.4,502.6,403,502.2,403.9z"/>
			<path class="st0" d="M537.2,445.2v14.2h20.4c5.9,0,10.3,4.7,10.3,10.4c0,5.8-4.4,10.3-10.3,10.3h-30.8c-5.8,0-10.3-4.7-10.3-10.4
				v-69.1c0-5.9,4.6-10.4,10.3-10.4h30.8c5.9,0,10.3,4.6,10.3,10.3c0,5.8-4.4,10.4-10.3,10.4h-20.4v13.6h20.4
				c5.9,0,10.3,4.6,10.3,10.3c0,5.9-4.4,10.4-10.3,10.4H537.2z"/>
		</g>
		<g>
			<g>
				<g>
					<path class="st0" d="M391.7,220.3c-3.4,0-6.2-2.8-6.2-6.2V107.8c0-50-40.7-90.6-90.6-90.6s-90.6,40.7-90.6,90.6v106.3
						c0,3.4-2.8,6.2-6.2,6.2c-3.4,0-6.2-2.8-6.2-6.2V107.8c0-56.8,46.2-103,103-103s103,46.2,103,103v106.3
						C397.9,217.5,395.1,220.3,391.7,220.3z"/>
				</g>
			</g>
			<g>
				<g>
					<path class="st0" d="M367.6,196.3c-3.4,0-6.2-2.8-6.2-6.2v-82.2c0-36.7-29.9-66.6-66.6-66.6c-36.7,0-66.6,29.9-66.6,66.6V190
						c0,3.4-2.8,6.2-6.2,6.2s-6.2-2.8-6.2-6.2v-82.2c0-43.6,35.4-79,79-79s79,35.4,79,79V190C373.9,193.5,371.1,196.3,367.6,196.3z"
						/>
				</g>
			</g>
			<g>
				<g>
					<path class="st0" d="M343.6,172.2c-3.4,0-6.2-2.8-6.2-6.2v-58.1c0-23.4-19.1-42.5-42.5-42.5s-42.5,19.1-42.5,42.5V166
						c0,3.4-2.8,6.2-6.2,6.2c-3.4,0-6.2-2.8-6.2-6.2v-58.1c0-30.3,24.6-54.9,54.9-54.9c30.3,0,54.9,24.6,54.9,54.9V166
						C349.8,169.4,347,172.2,343.6,172.2z"/>
				</g>
			</g>
			<g>
				<g>
					<path class="st0" d="M319.5,152.1c-3.4,0-6.2-2.8-6.2-6.2v-38.1c0-10.2-8.3-18.4-18.4-18.4c-10.2,0-18.4,8.3-18.4,18.4v38.1
						c0,3.4-2.8,6.2-6.2,6.2c-3.4,0-6.2-2.8-6.2-6.2v-38.1c0-17,13.8-30.9,30.9-30.9s30.9,13.8,30.9,30.9v38.1
						C325.7,149.4,323,152.1,319.5,152.1z"/>
				</g>
			</g>
			<g>
				<g>
					<path class="st0" d="M294.9,220.3c-3.4,0-6.2-2.8-6.2-6.2v-107c0-3.4,2.8-6.2,6.2-6.2c3.4,0,6.2,2.8,6.2,6.2v107
						C301.1,217.5,298.3,220.3,294.9,220.3z"/>
				</g>
			</g>
		</g>
	</g>
</g>
</svg>
